#!OML:ASF F:\VICON\USERDATA\INSTALL\rory3\rory3.ASF
:FULLY-SPECIFIED
:DEGREES
29
root -0.6699836179861969 18.50532780573805 11.927909804395286 6.0084996972068145 -5.910493061429648 0.08692806317239499
lfemur 14.509547868292795 -3.7018540099411017 -27.350921328896483
ltibia 30.861409276815802
lfoot 8.976748866049029 -16.575877138333993
ltoes -13.734348359406123
rfemur -42.20686200950979 2.150387924051591 26.14312147561789
rtibia 56.68930302849401
rfoot 5.856614239730396 -0.7481986902176185
rtoes 0.34164803606830363
lowerback 12.051662549151626 -0.9804573959207632 -1.8246722555235682
upperback -2.212436807482604 -1.3847152552302804 2.0358513636928057
thorax -9.386017466664743 -0.5388605584539963 2.906078458583731
lowerneck -20.515117293269878 -2.8969237672966655 -2.4066815224750977
upperneck 15.57213033370597 -3.8968649332261442 2.51021093638671
head 8.164372926535895 -1.7330499450216184 0.7712548396906627
lclavicle -9.596961721822002e-16 1.2487001323003895e-15
lhumerus -35.63769775457192 -17.28883920808546 95.08764131625986
lradius 125.68190604465232
lwrist 29.779894039666974
lhand -32.250469347349686 0.36131438875031174
lfingers nan
lthumb -5.256629765235139 30.381755214449853
rclavicle -1.0344139812305392e-15 1.2129001961484316e-15
rhumerus -59.93879803106666 8.40208600493019 -98.78217616071304
rradius 123.02698718892682
rwrist -18.32697492961664
rhand -18.42101270944445 37.91541675859511
rfingers nan
rthumb 7.768070845848667 7.94493682145569
30
root -0.6070249191915842 18.56700417219444 14.23030491400171 5.555059299755759 -4.9659418361254115 0.4256047959197087
lfemur 12.660097660989273 -4.523653647275798 -27.475526400498204
ltibia 41.25743424526346
lfoot 10.07326193853781 -15.124955745168954
ltoes -12.490215363287986
rfemur -39.36941612555125 1.9371943151277864 26.40526990193262
rtibia 42.746919958898744
rfoot 4.077006221720731 -0.2915295285222683
rtoes -1.7474334029231673
lowerback 12.110294337037375 -1.1925110606133724 -1.7030229393555278
upperback -2.0784002128393966 -1.7159863938256437 1.9767509592124974
thorax -8.686266951586099 -0.7009065952919256 3.1659472082909152
lowerneck -20.769029223203557 -2.788930617851621 -2.5265133345433957
upperneck 15.537754968697385 -3.7567262355979842 2.3974563813935053
head 8.09949957624994 -1.6802513413240199 0.7744882206344351
lclavicle -1.002700871974264e-15 1.220824728240316e-15
lhumerus -36.23040097962217 -18.610932701084522 95.54894691445494
lradius 123.76350469613915
lwrist 29.85167202965383
lhand -32.1207283022708 0.23057776540405633
lfingers nan
lthumb -5.20916046096155 30.212855876229487
rclavicle -1.051370930194716e-15 1.2046966021368322e-15
rhumerus -60.13334623366767 7.368583872098354 -97.22998109034147
rradius 123.25117544404655
rwrist -14.310933686836558
rhand -18.5413361153248 38.507059505230345
rfingers nan
rthumb 7.652279507040213 8.451842842088004
31
root -0.5562048920116448 18.49480372872011 17.057431078931124 4.5009078939665015 -4.184780393932255 0.7712295778075884
lfemur 9.301255446022093 -4.4051029149798735 -27.062964024878205
ltibia 54.751798963295364
lfoot 9.965785355004568 -13.469264419780933
ltoes -10.460447555130095
rfemur -36.34223720910189 1.5519088134615142 26.770710924606348
rtibia 33.15301879422599
rfoot 2.847546556883086 -3.000375980125491
rtoes -2.7026403558845336
lowerback 12.538466054292403 -1.281664947551619 -1.6072870817477867
upperback -1.483245726058756 -1.908813276938298 1.9150887828369962
thorax -7.879909694834283 -0.7874636630621668 3.259324177931287
lowerneck -20.465483761758474 -2.80146253462041 -2.71488857230657
upperneck 14.97938398836077 -3.693806396130405 2.427479125259854
head 7.785656458557707 -1.6844146781479399 0.8210891036325983
lclavicle -1.003741267215941e-15 1.221691237863581e-15
lhumerus -37.20513829362905 -19.482443429741707 96.07306904452913
lradius 120.51192297471295
lwrist 29.72280565949037
lhand -32.035462068809665 0.5282990684769922
lfingers nan
lthumb -5.130294764009308 30.50940691564426
rclavicle -1.0926054584747044e-15 1.179299890888402e-15
rhumerus -59.74970903090462 6.348298301711738 -95.8908477808108
rradius 123.43519948517294
rwrist -12.050939864656826
rhand -18.606736528627493 38.666618579897126
rfingers nan
rthumb 7.5664733881229065 8.42913282288837
32
root -0.5196421737811855 18.261344489956347 19.432773385687263 3.1016136339478395 -4.5313660652481085 0.4519343702834897
lfemur 4.89484583375102 -3.203523336623729 -25.39913373457739
ltibia 69.82428352564665
lfoot 9.315542878014918 -11.333286245588592
ltoes -10.564278268289842
rfemur -34.07760432623326 2.0403437516739182 27.623710608563375
rtibia 30.48425480682211
rfoot 2.2718385225249316 -5.446190585183555
rtoes 1.5854046555161343
lowerback 13.309386837488784 -1.0218592543092846 -1.0219159595182572
upperback -0.9798749288413113 -1.4408518244939166 2.0811968780199734
thorax -7.863296508615506 -0.6058422590374017 2.9368579694341035
lowerneck -20.061322463883215 -2.7256570068389623 -2.726679800347684
upperneck 14.795254982697639 -3.526510386967443 2.216318324187254
head 7.731983196502961 -1.6336635513405988 0.7690065808254147
lclavicle -9.788868609522466e-16 1.2390104842059014e-15
lhumerus -37.989617471309366 -19.27930552031227 96.70054301563135
lradius 115.82116942899373
lwrist 30.135060719120087
lhand -31.95240257585432 1.3800439768740866
lfingers nan
lthumb -4.823727984259223 31.441971492150195
rclavicle -1.0856007630699958e-15 1.1849896376552678e-15
rhumerus -58.83052912566613 5.681358685365796 -95.03266602431063
rradius 123.20460771744669
rwrist -11.767556897444306
rhand -18.542508588249277 38.50752265239639
rfingers nan
rthumb 7.528295144845247 7.885880294141461
